<svg xmlns="http://www.w3.org/2000/svg" width="55" height="68" viewBox="0 0 55 68" fill="none">
<path d="M46.0036 36.6288H9.77861C8.5981 36.6288 7.64111 35.4461 7.64111 33.9872V33.7091C7.64111 32.2502 8.5981 31.0676 9.77861 31.0676H46.0036C47.1841 31.0676 48.1411 32.2502 48.1411 33.7091V33.9872C48.1411 35.4461 47.1841 36.6288 46.0036 36.6288Z" fill="#92FFE6"/>
<path d="M46.0036 22.7257H9.77861C8.5981 22.7257 7.64111 21.543 7.64111 20.0841V19.8061C7.64111 18.3472 8.5981 17.1645 9.77861 17.1645H46.0036C47.1841 17.1645 48.1411 18.3472 48.1411 19.8061V20.0841C48.1411 21.543 47.1841 22.7257 46.0036 22.7257Z" fill="#92FFE6"/>
<path d="M46.0036 50.5318H9.77861C8.5981 50.5318 7.64111 49.3492 7.64111 47.8902V47.6122C7.64111 46.1533 8.5981 44.9706 9.77861 44.9706H46.0036C47.1841 44.9706 48.1411 46.1533 48.1411 47.6122V47.8902C48.1411 49.3492 47.1841 50.5318 46.0036 50.5318Z" fill="#92FFE6"/>
</svg>