<svg xmlns="http://www.w3.org/2000/svg" width="29" height="48" viewBox="0 0 29 48" fill="none">
<path d="M24.4412 0.864136H3.87119C1.73659 0.864136 0 2.60073 0 4.73486V43.707C0 45.8413 1.73683 47.5779 3.87119 47.5779H24.4412C26.5756 47.5779 28.312 45.8411 28.312 43.707V4.73486C28.312 2.60073 26.5756 0.864136 24.4412 0.864136ZM25.4334 43.7072C25.4334 44.2545 24.9883 44.6999 24.4412 44.6999H3.87119C3.3237 44.6999 2.87852 44.2545 2.87852 43.7072V4.73486C2.87852 4.18761 3.32394 3.74242 3.87119 3.74242H7.41305C7.53334 4.73463 8.37816 5.50378 9.40283 5.50378H18.9084C19.9343 5.50378 20.7782 4.73463 20.8984 3.74242H24.4415C24.9885 3.74242 25.4337 4.18761 25.4337 4.73486V43.7072H25.4334Z" fill="#B7B7B7" fill-opacity="0.8"/>
</svg>