<svg xmlns="http://www.w3.org/2000/svg" width="46" height="46" viewBox="0 0 46 46" fill="none">
<path fill-rule="evenodd" clip-rule="evenodd" d="M33.6577 1.71552C34.3584 1.01529 35.3085 0.621948 36.2991 0.621948C37.2897 0.621948 38.2398 1.01529 38.9405 1.71552L44.4625 7.23754C45.1628 7.93826 45.5561 8.88835 45.5561 9.87897C45.5561 10.8696 45.1628 11.8197 44.4625 12.5204L38.4985 18.4844L38.4729 18.5122L15.3513 40.5811C14.9289 40.9849 14.4177 41.284 13.8587 41.4544L2.06513 45.0418C1.78775 45.1257 1.4928 45.1328 1.21173 45.0622C0.930654 44.9917 0.673984 44.8462 0.469073 44.6413C0.264161 44.4364 0.118689 44.1797 0.0481584 43.8987C-0.022372 43.6176 -0.0153168 43.3226 0.0685721 43.0453L3.64102 31.3008C3.82838 30.6861 4.17111 30.1301 4.63609 29.6865L27.7064 7.66461L33.6577 1.71552ZM28.7997 11.0491L6.84832 32.0034C6.78156 32.0666 6.73227 32.1461 6.70525 32.234L4.00616 41.1042L12.9255 38.3902C13.0056 38.3655 13.0788 38.3224 13.1391 38.2642L35.0755 17.3249L28.7976 11.0491H28.7997ZM37.3668 15.0892L42.1991 10.2591C42.2488 10.2095 42.2882 10.1506 42.3151 10.0857C42.3421 10.0209 42.3559 9.95132 42.3559 9.88111C42.3559 9.81089 42.3421 9.74136 42.3151 9.6765C42.2882 9.61165 42.2488 9.55274 42.1991 9.50315L36.6771 3.98113C36.6275 3.93141 36.5686 3.89197 36.5037 3.86506C36.4388 3.83815 36.3693 3.82429 36.2991 3.82429C36.2289 3.82429 36.1593 3.83815 36.0945 3.86506C36.0296 3.89197 35.9707 3.93141 35.9211 3.98113L31.091 8.81129L37.3668 15.0892Z" fill="#B7B7B7" fill-opacity="0.8"/>
</svg>