<svg xmlns="http://www.w3.org/2000/svg" width="52" height="53" viewBox="0 0 52 53" fill="none">
<path d="M46.1851 26.8567H25.3765V6.04807C25.3765 5.79232 25.1673 5.58307 24.9115 5.58307H23.4003C20.347 5.57807 17.3228 6.17685 14.5018 7.34496C11.6808 8.51306 9.11861 10.2274 6.96263 12.3895C4.83939 14.5061 3.14762 17.0152 1.98135 19.7771C0.76774 22.6417 0.14499 25.7218 0.150426 28.8329C0.145426 31.8862 0.744204 34.9103 1.91231 37.7314C3.08042 40.5524 4.7948 43.1146 6.95682 45.2706C9.08999 47.4037 11.5777 49.0835 14.3445 50.2518C17.2091 51.4654 20.2892 52.0882 23.4003 52.0828C26.4536 52.0878 29.4777 51.489 32.2987 50.3209C35.1197 49.1528 37.6819 47.4384 39.8379 45.2764C41.9711 43.1432 43.6509 40.6555 44.8192 37.8887C46.0328 35.0241 46.6556 31.944 46.6501 28.8329V27.3217C46.6501 27.0659 46.4409 26.8567 46.1851 26.8567ZM36.984 42.5387C35.1842 44.3245 33.0496 45.7376 30.7027 46.6972C28.3558 47.6567 25.8427 48.1437 23.3073 48.1303C18.1865 48.107 13.3738 46.1017 9.75261 42.4806C6.1082 38.8362 4.1029 33.9886 4.1029 28.8329C4.1029 23.6773 6.1082 18.8297 9.75261 15.1853C12.9262 12.0117 17.0124 10.0761 21.424 9.63436V30.8092H42.5988C42.1513 35.2441 40.1983 39.3535 36.984 42.5387ZM51.3001 23.6249L51.149 21.9858C50.6549 16.6326 48.2776 11.5815 44.453 7.76856C40.6258 3.94858 35.5851 1.58448 30.2009 1.08422L28.5559 0.933101C28.2827 0.909851 28.0502 1.1191 28.0502 1.39229V23.7179C28.0502 23.9737 28.2595 24.1829 28.5152 24.1829L50.8351 24.1248C51.1083 24.1248 51.3233 23.8923 51.3001 23.6249ZM31.9911 20.2421V5.32732C35.6526 6.09368 39.0126 7.90699 41.663 10.5469C44.3193 13.1974 46.1386 16.5686 46.8942 20.2014L31.9911 20.2421Z" fill="#B7B7B7" fill-opacity="0.8"/>
</svg>