<svg xmlns="http://www.w3.org/2000/svg" width="52" height="49" viewBox="0 0 52 49" fill="none">
<path d="M52.0002 25.1824C52.0002 21.8052 49.2663 20.0362 45.5675 20.0362H34.7927C35.5968 17.1415 35.9185 14.4076 35.9185 11.9954C35.9185 2.66797 33.3454 0.738159 31.0939 0.738159C29.6466 0.738159 28.5209 0.898977 27.0735 1.70306C26.5911 2.0247 26.4302 2.34633 26.2694 2.82878L24.6612 11.5129C22.8923 16.0158 18.5502 20.0362 15.0122 22.7701V45.767C16.2987 45.767 17.5853 46.4103 19.1935 47.2144C20.9624 48.0184 22.7314 48.9833 24.6612 48.9833H39.9389C43.1552 48.9833 45.5675 46.4103 45.5675 44.1588C45.5675 43.6764 45.5675 43.3547 45.4067 43.0331C47.3365 42.229 48.7838 40.6208 48.7838 38.5302C48.7838 37.5653 48.623 36.7612 48.3014 35.9571C49.5879 35.1531 50.7136 33.7057 50.7136 32.0975C50.7136 31.1326 50.2312 30.1677 49.7487 29.3636C51.0353 28.3987 52.0002 26.7906 52.0002 25.1824ZM48.623 25.1824C48.623 27.273 46.5324 27.4338 46.2108 28.3987C45.8891 29.5245 47.4973 29.8461 47.4973 31.7759C47.4973 33.7057 45.085 33.7057 44.7634 34.8314C44.4418 36.118 45.5675 36.4396 45.5675 38.3694V38.691C45.2459 40.2992 42.8336 40.46 42.3511 41.1033C41.8687 41.9074 42.3511 42.229 42.3511 43.998C42.3511 44.9629 41.2254 45.6062 39.9389 45.6062H24.6612C23.3747 45.6062 22.0882 44.9629 20.48 44.1588C19.1935 43.5156 17.9069 42.8723 16.6204 42.5507V25.6648C20.6408 22.6093 25.787 18.1064 27.7168 12.4778V12.1562L29.1641 4.11532C29.8074 3.95451 30.2899 3.95451 31.0939 3.95451C31.4156 3.95451 32.7021 5.88431 32.7021 11.9954C32.7021 14.4076 32.2197 16.9807 31.4156 20.0362H31.0939C30.129 20.0362 29.4858 20.6795 29.4858 21.6444C29.4858 22.6093 30.129 23.2526 31.0939 23.2526H45.5675C47.1757 23.2526 48.623 24.0567 48.623 25.1824Z" fill="#B7B7B7" fill-opacity="0.8"/>
<path d="M13.404 48.9834H3.75492C1.98593 48.9834 0.538574 47.536 0.538574 45.767V23.2526C0.538574 21.4836 1.98593 20.0363 3.75492 20.0363H13.404C15.1729 20.0363 16.6203 21.4836 16.6203 23.2526V45.767C16.6203 47.536 15.1729 48.9834 13.404 48.9834ZM3.75492 23.2526V45.767H13.404V23.2526H3.75492Z" fill="#B7B7B7" fill-opacity="0.8"/>
</svg>