<svg xmlns="http://www.w3.org/2000/svg" width="56" height="52" viewBox="0 0 56 52" fill="none">
<path d="M22.2725 40.0576H33.9204V47.823H22.2725V40.0576Z" stroke="#B7B7B7" stroke-opacity="0.8" stroke-width="3.36" stroke-miterlimit="10"/>
<path d="M43.6272 18.703C43.6272 9.57877 35.6678 2.20172 26.3494 3.36652C19.3606 4.14305 13.7308 9.7729 12.7601 16.7617C11.9836 22.3915 14.3132 27.439 18.1958 30.7392C20.9137 33.0688 22.4667 36.3691 22.4667 39.6693V40.0576H34.1147V39.6693C34.1147 36.175 35.8619 32.8747 38.5798 30.351C41.4918 27.439 43.6272 23.3622 43.6272 18.703V18.703Z" stroke="#B7B7B7" stroke-opacity="0.8" stroke-width="3.36" stroke-miterlimit="10"/>
<path d="M49.4512 20.6444H55.2752" stroke="#B7B7B7" stroke-opacity="0.8" stroke-width="3.36" stroke-miterlimit="10"/>
<path d="M0.917969 20.6444H6.74195" stroke="#B7B7B7" stroke-opacity="0.8" stroke-width="3.36" stroke-miterlimit="10"/>
<path d="M43.2388 35.7867L47.3156 39.8635" stroke="#B7B7B7" stroke-opacity="0.8" stroke-width="3.36" stroke-miterlimit="10"/>
<path d="M8.87744 1.42517L12.9542 5.50196" stroke="#B7B7B7" stroke-opacity="0.8" stroke-width="3.36" stroke-miterlimit="10"/>
<path d="M12.9542 35.7867L8.87744 39.8635" stroke="#B7B7B7" stroke-opacity="0.8" stroke-width="3.36" stroke-miterlimit="10"/>
<path d="M47.3156 1.42517L43.2388 5.50196" stroke="#B7B7B7" stroke-opacity="0.8" stroke-width="3.36" stroke-miterlimit="10"/>
</svg>